<?xml version="1.0" encoding="iso-8859-1"?>
<!-- Uploaded to: SVG Repo, www.svgrepo.com, Generator: SVG Repo Mixer Tools -->
<svg fill="#000000" height="800px" width="800px" version="1.1" id="Layer_1" xmlns="http://www.w3.org/2000/svg" xmlns:xlink="http://www.w3.org/1999/xlink" 
	 viewBox="0 0 512 512" xml:space="preserve">
<g>
	<g>
		<path d="M256,0C154.739,0,72.348,82.386,72.348,183.652c0,70.241,18.514,94.635,169.771,320.929
			C245.217,509.217,250.424,512,256,512s10.782-2.783,13.881-7.418c151.251-226.216,169.771-251.423,169.771-320.929
			C439.652,82.386,357.261,0,256,0z M256,267.13c-46.032,0-83.478-37.446-83.478-83.478c0-46.032,37.446-83.478,83.478-83.478
			s83.478,37.446,83.478,83.478C339.478,229.684,302.032,267.13,256,267.13z"/>
	</g>
</g>
</svg>