<?xml version="1.0" encoding="utf-8"?><!-- Uploaded to: SVG Repo, www.svgrepo.com, Generator: SVG Repo Mixer Tools -->
<svg width="800px" height="800px" viewBox="0 0 24 24" fill="none" xmlns="http://www.w3.org/2000/svg">
<path d="M17.5 18.25C17.3011 18.25 17.1103 18.171 16.9697 18.0303C16.829 17.8896 16.75 17.6989 16.75 17.5C16.75 17.3011 16.829 17.1103 16.9697 16.9696C17.1103 16.829 17.3011 16.75 17.5 16.75C19.16 16.75 19.75 15.92 19.75 13.57C19.6777 12.7323 19.3121 11.9469 18.7176 11.3524C18.123 10.7578 17.3377 10.3922 16.5 10.32C16.1594 10.3286 15.8222 10.3893 15.5 10.5C15.4027 10.5407 15.2979 10.5601 15.1925 10.5569C15.0871 10.5538 14.9835 10.5282 14.8889 10.4818C14.7942 10.4354 14.7105 10.3693 14.6434 10.2879C14.5764 10.2065 14.5275 10.1118 14.5 10.01C14.1194 8.82082 13.3275 7.80624 12.2663 7.14831C11.2052 6.49038 9.94427 6.23217 8.70992 6.42004C7.47556 6.6079 6.34857 7.22953 5.5312 8.17336C4.71382 9.1172 4.25958 10.3214 4.25 11.57C4.25 14.79 4.4 16.75 6.5 16.75C6.69891 16.75 6.88968 16.829 7.03033 16.9696C7.17098 17.1103 7.25 17.3011 7.25 17.5C7.25 17.6989 7.17098 17.8896 7.03033 18.0303C6.88968 18.171 6.69891 18.25 6.5 18.25C2.75 18.25 2.75 14.39 2.75 11.57C2.71876 9.99373 3.24025 8.45627 4.224 7.2243C5.20776 5.99233 6.59171 5.14357 8.13579 4.82525C9.67988 4.50693 11.2867 4.73914 12.6775 5.48159C14.0683 6.22404 15.1553 7.42989 15.75 8.88997C16.014 8.8423 16.2818 8.81887 16.55 8.81997C17.785 8.89574 18.9496 9.42051 19.8245 10.2954C20.6995 11.1703 21.2242 12.335 21.3 13.57C21.25 14.85 21.25 18.25 17.5 18.25Z" fill="#000000"/>
<path d="M12 19.1799C11.9015 19.1804 11.8038 19.1612 11.7128 19.1234C11.6218 19.0856 11.5392 19.0301 11.47 18.9599L8.64 16.1299C8.50752 15.9878 8.43539 15.7997 8.43882 15.6054C8.44225 15.4111 8.52096 15.2257 8.65838 15.0883C8.79579 14.9509 8.98117 14.8722 9.17547 14.8688C9.36978 14.8653 9.55782 14.9375 9.7 15.0699L12 17.3699L14.3 15.0699C14.4422 14.9375 14.6302 14.8653 14.8245 14.8688C15.0188 14.8722 15.2042 14.9509 15.3416 15.0883C15.479 15.2257 15.5577 15.4111 15.5612 15.6054C15.5646 15.7997 15.4925 15.9878 15.36 16.1299L12.53 18.9999C12.3837 19.127 12.1934 19.1917 12 19.1799Z" fill="#000000"/>
<path d="M12 19.1799C11.8011 19.1799 11.6103 19.1009 11.4697 18.9603C11.329 18.8196 11.25 18.6289 11.25 18.4299V12.0699C11.25 11.871 11.329 11.6803 11.4697 11.5396C11.6103 11.399 11.8011 11.3199 12 11.3199C12.1989 11.3199 12.3897 11.399 12.5303 11.5396C12.671 11.6803 12.75 11.871 12.75 12.0699V18.4299C12.75 18.6289 12.671 18.8196 12.5303 18.9603C12.3897 19.1009 12.1989 19.1799 12 19.1799Z" fill="#000000"/>
</svg>