<svg fill="#000000" height="200px" width="200px" version="1.1" id="Layer_1" xmlns="http://www.w3.org/2000/svg" xmlns:xlink="http://www.w3.org/1999/xlink" viewBox="0 0 511.999 511.999" xml:space="preserve"><g id="SVGRepo_bgCarrier" stroke-width="0"></g><g id="SVGRepo_tracerCarrier" stroke-linecap="round" stroke-linejoin="round"></g><g id="SVGRepo_iconCarrier"> <g> <g> <path d="M432.973,192.035c-11.119,0-403.696,0-416.273,0C7.477,192.035,0,199.511,0,208.734c0,10.839,0,204.887,0,216.027v0.395 c0,9.223,7.477,16.699,16.699,16.699h416.273c9.223,0,16.699-7.477,16.699-16.699v-0.395c0-4.099,0-200.65,0-216.027 C449.672,199.511,442.195,192.035,432.973,192.035z M349.222,408.457H100.441c-6.583-33.864-33.233-60.641-67.042-67.378v-48.666 c33.679-6.711,60.269-33.301,66.98-66.98h248.914c6.711,33.68,33.301,60.27,66.979,66.98v48.668h0.001 C382.463,347.819,355.804,374.591,349.222,408.457z"></path> </g> </g> <g> <g> <path d="M224.531,234.32c-38.61,0-70.022,37.066-70.022,82.625c0,45.561,31.412,82.625,70.022,82.625 c38.61,0,70.022-37.065,70.022-82.625C294.553,271.386,263.141,234.32,224.531,234.32z"></path> </g> </g> <g> <g> <path d="M460.984,130.478H51.015c-9.223,0-16.699,7.477-16.699,16.699s7.477,16.699,16.699,16.699h409.969 c9.223,0,16.699-7.477,16.699-16.699C477.685,137.955,470.208,130.478,460.984,130.478z"></path> </g> </g> <g> <g> <path d="M495.301,70.144H85.33c-9.223,0-16.699,7.477-16.699,16.699s7.477,16.701,16.699,16.701h409.969 c9.223,0,16.699-7.477,16.699-16.699S504.523,70.144,495.301,70.144z"></path> </g> </g> </g></svg>