<svg xmlns="http://www.w3.org/2000/svg" xmlns:xlink="http://www.w3.org/1999/xlink" version="1.1" width="247px" height="240px" viewBox="-0.5 -0.5 247 240">
<path d="M 196.32 0 C 187.55 0 180.6 6.96 180.6 15.73 C 180.6 24.5 187.55 31.45 196.32 31.45 C 200.7 31.45 203.88 29.64 207.05 27.07 L 215.81 30.85 C 222.77 33.42 227.15 42.19 227.15 50.36 L 227.15 190.25 C 227.15 198.41 222.77 207.18 215.81 209.75 L 207.65 212.93 C 204.48 209.75 200.7 207.94 196.32 207.94 C 187.55 207.94 180.6 214.9 180.6 223.67 C 180.6 232.44 187.55 239.4 196.32 239.4 C 203.27 239.4 208.86 235.01 211.43 228.66 L 222.77 224.88 C 236.07 220.49 246.04 205.37 246.04 190.85 L 246.04 50.51 C 245.44 35.99 235.46 20.87 222.16 16.33 L 211.43 12.55 C 210.22 5.59 203.88 0 196.32 0 Z M 54.71 0.6 C 47.76 0.6 41.41 4.99 39.59 11.34 L 23.88 16.33 C 11.33 20.72 0 35.24 0 49.15 L 0 192.82 C 0 206.73 11.33 220.49 24.63 225.63 L 39.75 230.63 C 42.32 236.37 47.91 240 54.26 240 C 63.02 240 69.97 233.04 69.97 224.27 C 70.43 214.9 63.47 207.94 54.71 207.94 C 49.72 207.94 45.34 210.51 42.17 214.29 L 30.83 210.51 C 24.48 207.33 18.89 199.17 18.89 192.21 L 18.89 49.15 C 18.89 42.19 24.63 34.03 30.83 31.45 L 43.37 27.07 C 46.55 30.25 50.33 32.06 54.71 32.06 C 63.47 32.06 70.43 25.1 70.43 16.33 C 70.43 7.56 63.47 0.6 54.71 0.6 Z M 75.57 52.93 C 68.01 52.93 61.66 59.28 61.66 66.84 L 61.66 158.19 C 61.66 163.93 66.04 168.92 72.39 168.92 L 188.76 168.92 C 196.32 168.92 203.27 162.57 202.82 155.01 L 202.82 66.84 C 202.82 59.28 196.47 52.93 188.91 52.93 Z M 80.55 68.05 L 184.38 68.05 C 186.34 68.05 187.55 69.41 187.55 71.23 L 187.55 121.2 L 166.09 100.26 L 126.95 134.44 L 100.5 116.75 L 77.38 133.43 L 77.38 71.23 C 77.38 69.26 78.74 68.05 80.55 68.05 Z M 104.43 80.76 C 97.48 80.61 91.89 86.35 91.89 93.31 C 91.89 100.26 97.48 105.86 104.43 105.86 C 111.38 105.86 116.98 100.26 116.98 93.31 C 116.98 86.35 111.38 80.76 104.43 80.76 Z M 53.95 81.96 C 47.15 81.96 41.41 87.56 41.41 94.52 L 41.41 163.78 C 41.41 178.3 53.35 190.25 67.86 190.25 L 153.55 190.25 C 160.5 190.25 166.09 184.65 165.49 177.24 L 165.49 174.07 L 67.25 174.07 C 61.51 174.07 56.52 169.68 56.52 163.33 L 56.52 81.96 Z" fill="#ff6a00" stroke="none" pointer-events="all"/></svg>