<?xml version="1.0" encoding="utf-8"?><!-- Uploaded to: SVG Repo, www.svgrepo.com, Generator: SVG Repo Mixer Tools -->
<svg width="800px" height="800px" viewBox="0 0 24 24" fill="none" xmlns="http://www.w3.org/2000/svg">
<path fill-rule="evenodd" clip-rule="evenodd" d="M12.7864 9.74996L10.9999 6.17701L9.21345 9.74996H12.7864ZM7.3291 10.1646L10.3291 4.16455H11.6707L14.6707 10.1646L13.9999 11.25H7.99992L7.3291 10.1646ZM12.75 13.5L13.5 12.75H19.5L20.25 13.5V19.5L19.5 20.25H13.5L12.75 19.5V13.5ZM18.75 14.25H14.25V18.75H18.75V14.25ZM7.5 12.75C5.42893 12.75 3.75 14.4289 3.75 16.5C3.75 18.571 5.42893 20.25 7.5 20.25C9.57107 20.25 11.25 18.571 11.25 16.5C11.25 14.4289 9.57107 12.75 7.5 12.75ZM5.25 16.5C5.25 15.2573 6.25736 14.25 7.5 14.25C8.74264 14.25 9.75 15.2573 9.75 16.5C9.75 17.7426 8.74264 18.75 7.5 18.75C6.25736 18.75 5.25 17.7426 5.25 16.5Z" fill="#080341"/>
</svg>